<svg width="48" height="31" viewBox="0 0 48 31" fill="none" xmlns="http://www.w3.org/2000/svg">
<path d="M16.0785 0.5C15.4464 0.502585 14.8309 0.702821 14.3182 1.07267C13.8055 1.44251 13.4214 1.96344 13.2195 2.5625L10.92 9.5H2.57666e-05V21.8285C-0.00273997 22.4944 0.217219 23.1421 0.624918 23.6685C1.03262 24.195 1.60465 24.57 2.25003 24.734L6.14103 25.7195C6.42087 27.0676 7.15585 28.2785 8.22266 29.1489C9.28946 30.0193 10.6232 30.4964 12 30.5C14.778 30.5 17.097 28.5785 17.766 26H31.734C32.403 28.5785 34.722 30.5 37.5 30.5C40.278 30.5 42.597 28.5785 43.266 26H45C46.641 26 48 24.641 48 23V17.375C47.9972 16.0712 47.5704 14.8036 46.7841 13.7635C45.9979 12.7234 44.8947 11.9673 43.641 11.609L36.843 9.6875L30.984 2.6555C30.4234 1.98134 29.7213 1.43877 28.9276 1.06627C28.1338 0.693758 27.2678 0.500434 26.391 0.5H16.0785ZM16.0785 3.5H21V9.5H14.0625L16.0785 3.5ZM24 3.5H26.391C27.2805 3.5 28.119 3.893 28.6875 4.5785L32.8125 9.5H24V3.5ZM3.00003 12.5H35.766L42.843 14.516C43.4674 14.6882 44.0173 15.0619 44.4074 15.5789C44.7975 16.0959 45.0058 16.7274 45 17.375V23H43.266C42.597 20.4215 40.278 18.5 37.5 18.5C34.722 18.5 32.403 20.4215 31.734 23H17.766C17.097 20.4215 14.778 18.5 12 18.5C9.34053 18.5 7.10703 20.258 6.32853 22.6715L3.00003 21.83V12.5ZM12 21.5C13.6755 21.5 15 22.8245 15 24.5C15 26.1755 13.6755 27.5 12 27.5C10.3245 27.5 9.00003 26.1755 9.00003 24.5C9.00003 22.8245 10.3245 21.5 12 21.5ZM37.5 21.5C39.1755 21.5 40.5 22.8245 40.5 24.5C40.5 26.1755 39.1755 27.5 37.5 27.5C35.8245 27.5 34.5 26.1755 34.5 24.5C34.5 22.8245 35.8245 21.5 37.5 21.5Z" fill="#FAAA55"/>
</svg>
