<svg width="48" height="49" viewBox="0 0 48 49" fill="none" xmlns="http://www.w3.org/2000/svg">
<path d="M20 33.5L26 35.5C26 35.5 41 32.5 43 32.5C45 32.5 45 34.5 43 36.5C41 38.5 34 44.5 28 44.5C22 44.5 18 41.5 14 41.5H4" stroke="#FAAA55" stroke-width="2" stroke-linecap="round" stroke-linejoin="round"/>
<path d="M4 29.5C6 27.5 10 24.5 14 24.5C18 24.5 27.5 28.5 29 30.5C30.5 32.5 26 35.5 26 35.5M16 18.5V10.5C16 9.96957 16.2107 9.46086 16.5858 9.08579C16.9609 8.71071 17.4696 8.5 18 8.5H42C42.5304 8.5 43.0391 8.71071 43.4142 9.08579C43.7893 9.46086 44 9.96957 44 10.5V26.5" stroke="#FAAA55" stroke-width="2" stroke-linecap="round" stroke-linejoin="round"/>
<path d="M25 8.5H35V17.5H25V8.5Z" stroke="#FAAA55" stroke-width="2" stroke-linecap="round" stroke-linejoin="round"/>
</svg>
