<svg width="22" height="22" viewBox="0 0 22 22" fill="none" xmlns="http://www.w3.org/2000/svg">
<path d="M11.0001 5.34412C7.89661 5.34412 5.39193 7.84881 5.39193 10.9523C5.39193 14.0558 7.89661 16.5605 11.0001 16.5605C14.1036 16.5605 16.6083 14.0558 16.6083 10.9523C16.6083 7.84881 14.1036 5.34412 11.0001 5.34412ZM11.0001 14.5972C8.9931 14.5972 7.35521 12.9594 7.35521 10.9523C7.35521 8.9453 8.9931 7.30741 11.0001 7.30741C13.0072 7.30741 14.6451 8.9453 14.6451 10.9523C14.6451 12.9594 13.0072 14.5972 11.0001 14.5972ZM16.838 3.8074C16.1134 3.8074 15.5283 4.39256 15.5283 5.11717C15.5283 5.84178 16.1134 6.42694 16.838 6.42694C17.5626 6.42694 18.1478 5.84451 18.1478 5.11717C18.148 4.94511 18.1143 4.7747 18.0485 4.61569C17.9828 4.45668 17.8863 4.31221 17.7646 4.19055C17.643 4.06888 17.4985 3.97241 17.3395 3.90667C17.1805 3.84092 17.0101 3.80719 16.838 3.8074ZM21.9322 10.9523C21.9322 9.44295 21.9458 7.94725 21.8611 6.44061C21.7763 4.69061 21.3771 3.13748 20.0974 1.8578C18.815 0.575374 17.2646 0.178889 15.5146 0.0941238C14.0052 0.00935821 12.5095 0.0230301 11.0029 0.0230301C9.49349 0.0230301 7.99779 0.00935821 6.49115 0.0941238C4.74115 0.178889 3.18802 0.578108 1.90833 1.8578C0.625911 3.14022 0.229427 4.69061 0.144661 6.44061C0.0598953 7.94998 0.0735672 9.44569 0.0735672 10.9523C0.0735672 12.459 0.0598953 13.9574 0.144661 15.464C0.229427 17.214 0.628645 18.7672 1.90833 20.0469C3.19076 21.3293 4.74115 21.7258 6.49115 21.8105C8.00052 21.8953 9.49622 21.8816 11.0029 21.8816C12.5122 21.8816 14.0079 21.8953 15.5146 21.8105C17.2646 21.7258 18.8177 21.3265 20.0974 20.0469C21.3798 18.7644 21.7763 17.214 21.8611 15.464C21.9486 13.9574 21.9322 12.4617 21.9322 10.9523ZM19.5259 17.4C19.3263 17.8976 19.0857 18.2695 18.7001 18.6523C18.3146 19.0379 17.9454 19.2785 17.4478 19.4781C16.0095 20.0496 12.5943 19.9211 11.0001 19.9211C9.40599 19.9211 5.98802 20.0496 4.54974 19.4808C4.05208 19.2812 3.68021 19.0406 3.2974 18.6551C2.91185 18.2695 2.67122 17.9004 2.47161 17.4027C1.90286 15.9617 2.03138 12.5465 2.03138 10.9523C2.03138 9.35819 1.90286 5.94022 2.47161 4.50194C2.67122 4.00428 2.91185 3.63241 3.2974 3.24959C3.68294 2.86678 4.05208 2.62342 4.54974 2.42381C5.98802 1.85506 9.40599 1.98358 11.0001 1.98358C12.5943 1.98358 16.0122 1.85506 17.4505 2.42381C17.9482 2.62342 18.3201 2.86405 18.7029 3.24959C19.0884 3.63514 19.329 4.00428 19.5286 4.50194C20.0974 5.94022 19.9689 9.35819 19.9689 10.9523C19.9689 12.5465 20.0974 15.9617 19.5259 17.4Z" fill="#FAAA55"/>
</svg>
