<svg width="100" height="42" viewBox="0 0 100 42" fill="none" xmlns="http://www.w3.org/2000/svg">
<path d="M25.4735 16.8045C25.4912 16.8045 25.5001 16.8489 25.5001 16.9378C25.5001 17.0445 25.4379 17.2579 25.3134 17.578C25.1712 17.9159 24.9755 18.2982 24.7266 18.725C24.4599 19.134 24.1398 19.5786 23.7663 20.0587C23.4107 20.5388 22.9928 20.9923 22.5127 21.419C22.2637 21.4724 21.9525 21.5346 21.5791 21.6058C21.2057 21.6769 20.7789 21.7391 20.2987 21.7925C19.8186 21.8458 19.294 21.9081 18.725 21.9792C18.1737 22.0503 17.5958 22.1126 16.9912 22.1659C16.2621 23.304 15.5686 24.4332 14.9106 25.5535C14.2349 26.6738 13.5947 27.7585 12.9901 28.8077C12.4033 29.8568 11.852 30.8705 11.3364 31.8485C10.8384 32.8088 10.4028 33.7157 10.0293 34.5692C9.7626 34.6759 9.37139 34.7826 8.85569 34.8893C8.34 35.0138 7.79764 35.1294 7.22859 35.2361C6.65955 35.3428 6.13497 35.4406 5.65484 35.5295C5.15693 35.6362 4.81017 35.7162 4.61456 35.7695C5.77043 33.3333 6.92629 31.0394 8.08216 28.8877C9.23802 26.7182 10.4294 24.6377 11.6564 22.646C11.0163 22.6994 10.4206 22.7438 9.8693 22.7794C9.30026 22.8328 8.80235 22.8683 8.37557 22.8861C7.94879 22.9039 7.60203 22.9217 7.33529 22.9395C7.06855 22.9572 6.90851 22.9661 6.85516 22.9661C6.78403 22.9661 6.74847 22.9217 6.74847 22.8328C6.74847 22.6905 6.8107 22.4949 6.93518 22.2459C7.05966 21.997 7.20192 21.7391 7.36196 21.4724C7.52201 21.2057 7.69094 20.9745 7.86876 20.7789C8.04659 20.5833 8.18885 20.4677 8.29555 20.4321C9.23802 20.361 10.136 20.2721 10.9896 20.1654C11.8254 20.0765 12.6256 19.9787 13.3902 19.872C15.3819 16.7956 17.4091 13.9059 19.4719 11.203C21.5524 8.50004 23.6685 5.86823 25.8202 3.30755C25.8558 3.2542 25.8736 3.14751 25.8736 2.98746C25.8736 2.91633 25.8558 2.8452 25.8202 2.77407C25.7847 2.70294 25.6868 2.69405 25.5268 2.7474C22.9483 3.44092 20.6099 4.22335 18.5116 5.09469C16.431 5.94825 14.5728 6.8196 12.9368 7.70872C11.3008 8.59785 9.89597 9.4603 8.72233 10.2961C7.5309 11.1319 6.55286 11.8876 5.78821 12.5634C5.02356 13.2391 4.46341 13.7903 4.10776 14.2171C3.73433 14.6617 3.54761 14.9195 3.54761 14.9907C3.54761 15.0262 3.5654 15.0796 3.60096 15.1507C3.61874 15.2218 3.72544 15.2574 3.92105 15.2574C4.31226 15.2574 4.72126 15.1952 5.14804 15.0707C5.5926 14.964 6.03717 14.8306 6.48173 14.6706C6.92629 14.4928 7.36196 14.306 7.78874 14.1104C8.19774 13.9148 8.58007 13.7192 8.93572 13.5236C8.93572 13.8081 8.94461 14.1371 8.96239 14.5105C8.98017 14.884 8.99795 15.2574 9.01574 15.6308C9.03352 16.0043 9.0513 16.3688 9.06908 16.7245C9.08687 17.0623 9.09576 17.338 9.09576 17.5513C8.9535 17.6403 8.72233 17.7203 8.40224 17.7914C8.06437 17.8625 7.66427 17.9337 7.20192 18.0048C6.73957 18.0759 6.21499 18.1293 5.62817 18.1648C5.02356 18.2182 4.39228 18.2449 3.73433 18.2449C3.6632 18.2449 3.60096 18.236 3.54761 18.2182C3.51205 18.2004 3.47648 18.1915 3.44092 18.1915C3.33422 18.1915 3.17418 18.0937 2.96079 17.8981C2.7474 17.7203 2.50734 17.4891 2.2406 17.2046C1.99164 16.9379 1.7338 16.6355 1.46706 16.2977C1.20032 15.9598 0.960256 15.6397 0.746866 15.3374C0.515693 15.0173 0.337868 14.7328 0.21339 14.4839C0.0711301 14.2171 0 14.0215 0 13.897C0 13.1502 0.275629 12.3855 0.826887 11.6031C1.37815 10.8029 2.12501 10.0027 3.06748 9.20245C4.00996 8.42002 5.10358 7.64648 6.34836 6.88183C7.57535 6.11719 8.88237 5.39699 10.2694 4.72126C11.6387 4.02774 13.0346 3.39646 14.4572 2.82742C15.8798 2.2406 17.2402 1.74269 18.5383 1.33369C19.8364 0.924691 21.0367 0.595715 22.1392 0.346759C23.2418 0.115587 24.1487 0 24.86 0C25.0734 0 25.3134 0.0800211 25.5802 0.240064C25.8647 0.400106 26.1403 0.604605 26.407 0.853561C26.6738 1.1203 26.9405 1.40482 27.2073 1.70712C27.474 2.02721 27.7141 2.34729 27.9274 2.66738C28.1408 2.98746 28.3187 3.28977 28.4609 3.57429C28.5854 3.85881 28.6565 4.08998 28.6743 4.2678C28.6743 4.33893 28.5498 4.579 28.3009 4.988C28.0519 5.39699 27.7052 5.93047 27.2606 6.58842C26.8338 7.26416 26.3181 8.04659 25.7135 8.93572C25.1267 9.82484 24.4776 10.794 23.7663 11.8432C23.055 12.8923 22.3082 14.0037 21.5257 15.1774C20.7433 16.351 19.952 17.5602 19.1518 18.805C20.2543 18.5561 21.1879 18.3071 21.9525 18.0581C22.735 17.827 23.384 17.6225 23.8997 17.4447C24.4154 17.249 24.7977 17.0979 25.0467 16.9912C25.2956 16.8667 25.4379 16.8045 25.4735 16.8045ZM30.7282 19.6319C30.5859 20.0231 30.4437 20.4143 30.3014 20.8055C30.1592 21.2145 30.008 21.6324 29.848 22.0592C30.6126 21.1701 31.2795 20.4499 31.8485 19.8986C32.3997 19.3474 32.8621 18.9117 33.2355 18.5916C33.6267 18.2893 33.9379 18.0759 34.1691 17.9515C34.4003 17.8448 34.587 17.7914 34.7293 17.7914C34.8893 17.7914 35.1294 17.8714 35.4495 18.0315C35.7518 18.1737 36.063 18.3605 36.383 18.5916C36.7209 18.8228 37.0054 19.0629 37.2366 19.3118C37.4678 19.5608 37.5834 19.7742 37.5834 19.952C37.5834 19.9876 37.5834 20.032 37.5834 20.0854C37.5656 20.1387 37.5478 20.2098 37.53 20.2987C37.4233 20.601 37.2988 20.9567 37.1566 21.3657C36.9965 21.7925 36.8276 22.2281 36.6498 22.6727C36.4897 23.0995 36.3208 23.5352 36.143 23.9797C35.9829 24.4243 35.8318 24.8422 35.6895 25.2334C35.565 25.6246 35.4583 25.9714 35.3694 26.2737C35.2805 26.5582 35.2361 26.7627 35.2361 26.8872C35.2361 26.9761 35.2716 27.0205 35.3428 27.0205C35.485 27.0205 35.6895 26.9405 35.9563 26.7805C36.223 26.6204 36.5253 26.407 36.8632 26.1403C37.2188 25.8913 37.5834 25.6157 37.9568 25.3134C38.3302 25.0111 38.6948 24.7088 39.0504 24.4065C39.3883 24.1042 39.6995 23.8375 39.984 23.6063C40.2685 23.3573 40.4819 23.1706 40.6242 23.0461C40.7486 23.1528 40.882 23.2951 41.0243 23.4729C41.1665 23.6507 41.3088 23.8108 41.4511 23.9531C41.1665 24.2198 40.8287 24.5399 40.4375 24.9133C40.0285 25.3045 39.5928 25.6957 39.1304 26.087C38.6681 26.496 38.1791 26.8961 37.6634 27.2873C37.1655 27.6963 36.6764 28.0608 36.1963 28.3809C35.734 28.701 35.2894 28.9588 34.8626 29.1544C34.4536 29.3323 34.1069 29.4212 33.8224 29.4212C33.6445 29.4212 33.4134 29.3589 33.1288 29.2345C32.8621 29.11 32.5954 28.9588 32.3286 28.781C32.0619 28.5854 31.8396 28.372 31.6618 28.1408C31.484 27.9097 31.395 27.6874 31.395 27.474C31.5017 26.9761 31.6529 26.407 31.8485 25.7669C32.0263 25.1445 32.2219 24.4954 32.4353 23.8197C32.6665 23.1617 32.8977 22.5038 33.1288 21.8458C33.36 21.2057 33.5912 20.6099 33.8224 20.0587L33.769 20.0854C33.5378 20.3699 33.2089 20.7433 32.7821 21.2057C32.3553 21.6502 31.8663 22.2282 31.315 22.9395C30.7638 23.6508 30.1858 24.5132 29.5812 25.5268C28.9766 26.5226 28.3809 27.7052 27.7941 29.0744C27.7229 29.2522 27.6607 29.3945 27.6074 29.5012C27.5362 29.5901 27.4206 29.6346 27.2606 29.6346C27.0472 29.6346 26.8071 29.5723 26.5404 29.4479C26.2915 29.3412 26.0247 29.19 25.7402 28.9944C25.4735 28.8166 25.2067 28.6121 24.94 28.3809C24.6555 28.1497 24.4065 27.9186 24.1931 27.6874C24.1931 27.6163 24.2287 27.4118 24.2998 27.0739C24.3532 26.7182 24.4421 26.2826 24.5666 25.7669C24.691 25.2512 24.8422 24.6644 25.02 24.0064C25.2156 23.3484 25.429 22.6549 25.6602 21.9258C25.8913 21.1968 26.1403 20.4499 26.407 19.6852C26.6738 18.9206 26.9672 18.1915 27.2873 17.498C27.803 17.7292 28.372 18.0226 28.9944 18.3782C29.6168 18.7339 30.1947 19.1518 30.7282 19.6319ZM40.2241 23.3929C40.5086 23.1262 40.8287 22.8239 41.1843 22.486C41.54 22.1481 41.9045 21.7747 42.2779 21.3657C42.6336 20.9745 42.9626 20.5477 43.2649 20.0854C43.585 19.623 43.8339 19.1251 44.0117 18.5916C44.0651 18.3071 44.1362 18.0137 44.2251 17.7114C44.3318 17.3913 44.4474 17.1068 44.5719 16.8578C44.7141 16.5911 44.8386 16.3777 44.9453 16.2177C45.0698 16.0398 45.1854 15.9509 45.2921 15.9509C45.4343 16.0398 45.6477 16.1999 45.9322 16.431C46.2346 16.68 46.528 16.9379 46.8125 17.2046C47.1148 17.4713 47.3726 17.7114 47.586 17.9248C47.8172 18.156 47.9328 18.2982 47.9328 18.3516C47.7905 18.9028 47.7194 19.4096 47.7194 19.872C47.7194 20.3165 47.755 20.7522 47.8261 21.179C47.8972 21.6235 47.9683 22.0948 48.0395 22.5927C48.1284 23.0728 48.1728 23.6419 48.1728 24.2998C48.1728 24.691 48.1106 25.1356 47.9861 25.6335C47.8439 26.1314 47.6216 26.5849 47.3193 26.9939C47.9239 26.6204 48.5374 26.2114 49.1598 25.7669C49.7644 25.3045 50.3067 24.8777 50.7869 24.4865C51.3381 24.0064 51.8716 23.5263 52.3873 23.0461L53.1875 23.9531C52.7963 24.3265 52.3695 24.7266 51.9072 25.1534C51.427 25.5802 50.938 25.998 50.4401 26.407C49.9244 26.816 49.4087 27.2073 48.893 27.5807C48.3773 27.9719 47.8617 28.3098 47.346 28.5943C46.8303 28.8788 46.3412 29.11 45.8789 29.2878C45.3988 29.4656 44.9542 29.5545 44.5452 29.5545C44.1896 29.5545 43.7983 29.4656 43.3716 29.2878C42.9448 29.11 42.5447 28.9055 42.1712 28.6743C41.7978 28.4254 41.4688 28.1675 41.1843 27.9008C40.8998 27.634 40.7309 27.4118 40.6775 27.2339C40.6775 27.1984 40.7042 27.145 40.7575 27.0739C40.8109 27.0028 40.8731 26.9227 40.9443 26.8338C40.9976 26.7449 41.0598 26.6649 41.131 26.5938C41.2021 26.5226 41.2554 26.4871 41.291 26.4871C41.3621 26.4871 41.5044 26.5493 41.7178 26.6738C41.949 26.7805 42.3135 26.8338 42.8114 26.8338C43.0959 26.8338 43.336 26.7627 43.5316 26.6204C43.745 26.4604 43.9139 26.2648 44.0384 26.0336C44.1807 25.7847 44.2785 25.5001 44.3318 25.18C44.403 24.86 44.4385 24.531 44.4385 24.1931C44.4385 23.6774 44.4118 23.1795 44.3585 22.6994C44.3051 22.2193 44.2518 21.7569 44.1985 21.3124C43.9851 21.5435 43.745 21.7925 43.4783 22.0592C43.2115 22.326 42.9448 22.5927 42.678 22.8594C42.3935 23.1262 42.1179 23.384 41.8512 23.633C41.5844 23.8819 41.3355 24.1042 41.1043 24.2998L40.2241 23.3929ZM67.0579 22.9661L67.8848 23.8997C66.7823 24.8955 65.6531 25.8291 64.4972 26.7005C63.3413 27.5718 62.1855 28.4165 61.0296 29.2345C60.8696 29.7502 60.674 30.2925 60.4428 30.8616C60.2294 31.4306 59.9627 32.0797 59.6426 32.8087C59.3047 33.609 58.9046 34.3914 58.4422 35.156C57.9977 35.9207 57.5264 36.6409 57.0285 37.3166C56.5128 37.9924 55.9883 38.6147 55.4548 39.1838C54.9213 39.735 54.3967 40.2152 53.881 40.6242C53.3653 41.0332 52.8674 41.3444 52.3873 41.5577C51.9072 41.7889 51.4626 41.9045 51.0536 41.9045C50.8758 41.9045 50.6446 41.8334 50.3601 41.6911C50.0756 41.5489 49.8088 41.3621 49.5599 41.131C49.2931 40.8998 49.0709 40.6597 48.893 40.4108C48.733 40.1618 48.653 39.9218 48.653 39.6906C48.653 38.9259 48.8575 38.1791 49.2665 37.45C49.6755 36.7209 50.2445 35.9829 50.9736 35.2361C51.6849 34.4892 52.5296 33.7334 53.5076 32.9688C54.4856 32.2219 55.5437 31.4484 56.6818 30.6482C57.0374 29.7057 57.3842 28.7277 57.7221 27.7141C58.0421 26.7005 58.3622 25.6957 58.6823 24.6999C58.1666 25.3579 57.6598 25.9358 57.1619 26.4337C56.6818 26.9316 56.2372 27.3584 55.8282 27.7141C55.4192 28.0519 55.0636 28.3276 54.7613 28.5409C54.4412 28.7543 54.21 28.9144 54.0678 29.0211C53.9611 29.0922 53.8455 29.1456 53.721 29.1811C53.5787 29.1989 53.4543 29.2078 53.3476 29.2078C53.1164 29.2078 52.8585 29.1367 52.574 28.9944C52.2895 28.8699 52.0317 28.701 51.8005 28.4876C51.5693 28.2742 51.3737 28.0341 51.2137 27.7674C51.0358 27.5184 50.9469 27.2784 50.9469 27.0472C50.9469 26.7805 51.0358 26.3537 51.2137 25.7669C51.3915 25.18 51.6315 24.4599 51.9338 23.6063C52.2361 22.7705 52.5829 21.828 52.9741 20.7789C53.3831 19.7475 53.8188 18.6361 54.2811 17.4447C54.2989 17.3913 54.3167 17.3646 54.3345 17.3646C54.3523 17.3824 54.3878 17.3913 54.4412 17.3913C54.6724 17.4269 54.9836 17.5158 55.3748 17.658C55.7838 17.8181 56.1839 17.987 56.5751 18.1648C56.9485 18.3427 57.2775 18.5116 57.562 18.6716C57.8465 18.8495 57.9888 18.9651 57.9888 19.0184C57.9354 19.1073 57.8376 19.3118 57.6954 19.6319C57.5353 19.9342 57.3575 20.3076 57.1619 20.7522C56.9663 21.1968 56.7529 21.6769 56.5217 22.1926C56.3083 22.7083 56.1038 23.2062 55.9082 23.6863C55.7126 24.1664 55.5615 24.5932 55.4548 24.9667C55.3303 25.3579 55.2681 25.6424 55.2681 25.8202C55.2681 25.8736 55.2859 25.9002 55.3214 25.9002C55.4103 25.9002 55.597 25.7935 55.8816 25.5802C56.1661 25.349 56.5217 25.0022 56.9485 24.5399C57.3753 24.0598 57.8554 23.4551 58.3889 22.7261C58.9224 21.9792 59.4914 21.0901 60.096 20.0587C60.3272 19.2585 60.5228 18.6183 60.6828 18.1382C60.8429 17.658 60.9496 17.418 61.0029 17.418C61.0741 17.418 61.2608 17.5069 61.5631 17.6847C61.8654 17.8625 62.1855 18.0848 62.5233 18.3516C62.879 18.6005 63.1902 18.8495 63.4569 19.0984C63.7237 19.3474 63.857 19.5341 63.857 19.6586C63.857 19.7119 63.8481 19.7653 63.8304 19.8186C63.8126 19.872 63.7948 19.9253 63.777 19.9787C63.4925 20.8322 63.2524 21.6058 63.0568 22.2993C62.8434 22.975 62.6567 23.6063 62.4967 24.1931C62.3188 24.7622 62.1677 25.2867 62.0432 25.7669C61.9187 26.247 61.7943 26.7093 61.6698 27.1539C62.5945 26.496 63.5014 25.8202 64.3905 25.1267C65.2974 24.451 66.1865 23.7308 67.0579 22.9661ZM50.9469 39.904C51.1781 39.904 51.4893 39.6906 51.8805 39.2638C52.2539 38.8548 52.6718 38.3213 53.1342 37.6634C53.5787 37.0054 54.0322 36.2674 54.4945 35.4495C54.9391 34.6492 55.3392 33.8579 55.6949 33.0755C55.2325 33.4667 54.7168 33.8935 54.1478 34.3558C53.5787 34.8182 53.0453 35.325 52.5473 35.8762C52.0494 36.4275 51.6315 37.0143 51.2937 37.6367C50.9558 38.2591 50.7869 38.9259 50.7869 39.6372C50.7869 39.8151 50.8402 39.904 50.9469 39.904ZM68.4716 29.7679C68.2582 29.7679 68.0092 29.7057 67.7247 29.5812C67.458 29.439 67.1735 29.2434 66.8712 28.9944C66.5866 28.7632 66.3021 28.4876 66.0176 28.1675C65.7509 27.8474 65.5286 27.5096 65.3508 27.1539C65.2796 27.0294 65.2263 26.8783 65.1907 26.7005C65.1729 26.5226 65.164 26.3003 65.164 26.0336C65.164 25.3401 65.2707 24.6466 65.4841 23.9531C65.6975 23.2595 65.9909 22.5927 66.3644 21.9525C66.7378 21.3301 67.1912 20.7433 67.7247 20.1921C68.2582 19.623 68.8361 19.1429 69.4585 18.7517C70.0631 18.3427 70.7211 18.0226 71.4324 17.7914C72.1437 17.5602 72.8639 17.4447 73.593 17.4447C73.6997 17.4447 73.8419 17.5069 74.0197 17.6314C74.2153 17.7381 74.4198 17.8892 74.6332 18.0848C74.8644 18.2804 75.0867 18.5027 75.3001 18.7517C75.5312 19.0006 75.7357 19.2496 75.9136 19.4985C76.0914 19.7475 76.2426 19.9876 76.367 20.2187C76.4737 20.4499 76.5271 20.6544 76.5271 20.8322C76.4737 21.0634 76.287 21.3212 75.9669 21.6058C75.6468 21.8725 75.2734 22.1303 74.8466 22.3793C74.4198 22.6105 73.9664 22.8061 73.4863 22.9661C73.0239 23.1262 72.6149 23.2062 72.2593 23.2062C72.0459 23.2062 71.9392 23.1439 71.9392 23.0195C71.9392 22.8772 72.0281 22.6816 72.2059 22.4326C72.4015 22.1659 72.606 21.8725 72.8194 21.5524C73.0506 21.2501 73.2551 20.9478 73.4329 20.6455C73.6107 20.3254 73.6997 20.0587 73.6997 19.8453C73.6997 19.7386 73.673 19.6497 73.6196 19.5786C73.5663 19.5074 73.4952 19.4719 73.4062 19.4719C73.1395 19.4719 72.855 19.5874 72.5527 19.8186C72.2682 20.0676 71.9836 20.3877 71.6991 20.7789C71.3968 21.1879 71.1123 21.6502 70.8456 22.1659C70.5788 22.6816 70.3476 23.2151 70.152 23.7663C69.9564 24.3176 69.7964 24.86 69.6719 25.3934C69.5474 25.9447 69.4852 26.4426 69.4852 26.8872C69.4852 27.1539 69.5652 27.3406 69.7253 27.4473C69.8853 27.554 70.1254 27.6074 70.4454 27.6074C71.2635 27.6074 72.0548 27.474 72.8194 27.2073C73.5663 26.9227 74.2954 26.5671 75.0067 26.1403C75.7002 25.7135 76.367 25.2334 77.0072 24.6999C77.6296 24.1664 78.2253 23.633 78.7943 23.0995C78.9188 23.2418 79.0789 23.3929 79.2745 23.5529C79.4701 23.713 79.6123 23.8464 79.7012 23.9531C78.9544 24.7355 78.1542 25.4823 77.3006 26.1937C76.4648 26.905 75.5757 27.5273 74.6332 28.0608C73.7085 28.5943 72.7305 29.0122 71.6991 29.3145C70.6677 29.6168 69.5919 29.7679 68.4716 29.7679ZM79.9947 29.4212C79.8168 29.4212 79.5857 29.3589 79.3011 29.2345C79.0344 29.11 78.7677 28.9588 78.5009 28.781C78.252 28.5854 78.0386 28.372 77.8608 28.1408C77.6652 27.9097 77.5674 27.6874 77.5674 27.474C77.6918 26.9405 77.8608 26.327 78.0742 25.6335C78.2698 24.94 78.492 24.2287 78.741 23.4996C78.9722 22.7883 79.2211 22.0859 79.4879 21.3924C79.7546 20.7166 79.9858 20.112 80.1814 19.5786C80.3948 19.0451 80.5815 18.6094 80.7415 18.2715C80.9016 17.9515 81.0083 17.7914 81.0616 17.7914C81.1327 17.7914 81.3106 17.8714 81.5951 18.0315C81.8974 18.1737 82.2086 18.3605 82.5287 18.5916C82.8488 18.8228 83.1333 19.0629 83.3822 19.3118C83.649 19.5608 83.7823 19.7742 83.7823 19.952C83.7823 19.9876 83.7735 20.032 83.7557 20.0854C83.7379 20.1387 83.7201 20.2098 83.7023 20.2987C83.6134 20.601 83.4889 20.9567 83.3289 21.3657C83.1866 21.7925 83.0266 22.2281 82.8488 22.6727C82.6709 23.0995 82.502 23.5352 82.342 23.9797C82.1641 24.4243 82.013 24.8422 81.8885 25.2334C81.7462 25.6246 81.6307 25.9714 81.5417 26.2737C81.4706 26.5582 81.4351 26.7627 81.4351 26.8872C81.4351 26.9761 81.4706 27.0205 81.5417 27.0205C81.6662 27.0205 81.8618 26.9405 82.1286 26.7805C82.3953 26.6204 82.7065 26.407 83.0621 26.1403C83.4 25.8913 83.7557 25.6157 84.1291 25.3134C84.5203 25.0111 84.8849 24.7088 85.2227 24.4065C85.5784 24.1042 85.8896 23.8375 86.1563 23.6063C86.4408 23.3573 86.6542 23.1706 86.7965 23.0461C86.9032 23.1528 87.0366 23.2951 87.1966 23.4729C87.3566 23.6507 87.4989 23.8108 87.6234 23.9531C87.3566 24.2198 87.0188 24.5399 86.6098 24.9133C86.2186 25.3045 85.7918 25.6957 85.3294 26.087C84.8493 26.496 84.3603 26.8961 83.8624 27.2873C83.3645 27.6963 82.8754 28.0608 82.3953 28.3809C81.9152 28.701 81.4706 28.9588 81.0616 29.1544C80.6526 29.3323 80.297 29.4212 79.9947 29.4212ZM87.2233 12.2166C87.2055 12.2699 87.161 12.3855 87.0899 12.5634C87.001 12.759 86.9032 12.9812 86.7965 13.2302C86.6898 13.4791 86.5653 13.737 86.423 14.0037C86.2808 14.2883 86.1474 14.5461 86.0229 14.7773C85.8807 15.0084 85.7562 15.1952 85.6495 15.3374C85.525 15.4975 85.4272 15.5775 85.3561 15.5775C85.1249 15.5597 84.8582 15.4886 84.5559 15.3641C84.2358 15.2574 83.9335 15.124 83.649 14.964C83.3645 14.8039 83.1244 14.6528 82.9288 14.5105C82.7332 14.3683 82.6354 14.2705 82.6354 14.2171C82.6354 13.9504 82.7065 13.6125 82.8488 13.2035C82.991 12.8123 83.16 12.4211 83.3556 12.0299C83.5512 11.6387 83.7468 11.3097 83.9424 11.0429C84.1558 10.7584 84.3158 10.6162 84.4225 10.6162C84.6359 10.6162 84.9026 10.6873 85.2227 10.8296C85.5428 10.9718 85.8451 11.1319 86.1296 11.3097C86.4319 11.4875 86.6898 11.6653 86.9032 11.8432C87.1166 12.021 87.2233 12.1455 87.2233 12.2166ZM88.8237 26.5671C88.8237 26.9405 88.9571 27.1272 89.2238 27.1272C89.5083 27.1272 89.8818 26.905 90.3441 26.4604C90.8064 26.0158 91.2866 25.4468 91.7845 24.7533C91.7667 24.6288 91.7489 24.5132 91.7311 24.4065C91.7311 24.2998 91.7311 24.2109 91.7311 24.1398C91.7311 23.8908 91.7578 23.5974 91.8112 23.2595C91.8645 22.9217 91.9979 22.5393 92.2113 22.1126C92.3713 21.7925 92.5491 21.4724 92.7447 21.1523C92.9226 20.8678 93.1271 20.5655 93.3582 20.2454C93.6072 19.9253 93.8739 19.623 94.1584 19.3385L94.2918 19.2318C94.3985 19.3918 94.5586 19.5963 94.7719 19.8453C94.9676 20.0942 95.1632 20.3432 95.3588 20.5922C95.5722 20.8589 95.75 21.099 95.8922 21.3124C96.0523 21.5435 96.1501 21.6947 96.1857 21.7658C96.1857 22.2993 96.0878 22.8239 95.8922 23.3396C95.6966 23.873 95.4477 24.3887 95.1454 24.8866C95.8745 24.8511 96.5502 24.6644 97.1726 24.3265C97.795 24.0064 98.444 23.4818 99.1198 22.7527C99.2443 22.8594 99.3865 23.0106 99.5466 23.2062C99.7244 23.4018 99.8755 23.5618 100 23.6863C99.4843 24.2198 98.9775 24.6644 98.4796 25.02C97.9817 25.3757 97.4927 25.6513 97.0125 25.8469C96.5146 26.0603 96.0078 26.2114 95.4921 26.3003C94.9942 26.3893 94.4785 26.4337 93.9451 26.4337C93.5183 26.8783 93.0737 27.2784 92.6114 27.634C92.1312 28.0075 91.6422 28.3276 91.1443 28.5943C90.6642 28.861 90.1752 29.0655 89.6773 29.2078C89.1971 29.35 88.7348 29.4212 88.2902 29.4212C87.9346 29.4212 87.5611 29.3145 87.1699 29.1011C86.7787 28.8877 86.423 28.621 86.103 28.3009C85.8007 27.9808 85.5428 27.634 85.3294 27.2606C85.116 26.905 85.0093 26.5849 85.0093 26.3003C85.0093 25.3757 85.1338 24.4599 85.3828 23.5529C85.6317 22.6283 86.0229 21.7747 86.5564 20.9923C87.0899 20.1921 87.7656 19.4896 88.5836 18.885C89.4016 18.2626 90.3797 17.8003 91.5177 17.498C91.5533 17.4624 91.6155 17.4447 91.7045 17.4447C91.7934 17.4269 91.8645 17.418 91.9179 17.418C92.0957 17.418 92.2824 17.4802 92.478 17.6047C92.6558 17.7292 92.8248 17.8714 92.9848 18.0315C93.1626 18.1915 93.3049 18.3516 93.4116 18.5116C93.5183 18.6539 93.5716 18.7517 93.5716 18.805C93.5538 18.8584 93.4649 18.9295 93.3049 19.0184C93.1448 19.1251 92.9314 19.2851 92.6647 19.4985C92.398 19.7119 92.0779 20.0231 91.7045 20.4321C91.3488 20.8411 90.9487 21.3835 90.5041 22.0592C89.8462 23.0373 89.4016 23.9264 89.1704 24.7266C88.9393 25.5268 88.8237 26.1403 88.8237 26.5671Z" fill="#FAAA55"/>
</svg>
