<svg width="42" height="32" viewBox="0 0 42 32" fill="none" xmlns="http://www.w3.org/2000/svg">
<path d="M33.75 16.25C33.75 19.4326 32.4857 22.4848 30.2353 24.7353C27.9848 26.9857 24.9326 28.25 21.75 28.25C18.5674 28.25 15.5152 26.9857 13.2647 24.7353C11.0143 22.4848 9.75 19.4326 9.75 16.25C9.75 13.0674 11.0143 10.0152 13.2647 7.76472C15.5152 5.51428 18.5674 4.25 21.75 4.25C24.9326 4.25 27.9848 5.51428 30.2353 7.76472C32.4857 10.0152 33.75 13.0674 33.75 16.25ZM21.75 26.75C23.1289 26.75 24.4943 26.4784 25.7682 25.9507C27.0421 25.4231 28.1996 24.6496 29.1746 23.6746C30.1496 22.6996 30.9231 21.5421 31.4507 20.2682C31.9784 18.9943 32.25 17.6289 32.25 16.25C32.25 14.8711 31.9784 13.5057 31.4507 12.2318C30.9231 10.9579 30.1496 9.80039 29.1746 8.82538C28.1996 7.85036 27.0421 7.07694 25.7682 6.54926C24.4943 6.02159 23.1289 5.75 21.75 5.75C18.9652 5.75 16.2945 6.85625 14.3254 8.82538C12.3562 10.7945 11.25 13.4652 11.25 16.25C11.25 19.0348 12.3562 21.7055 14.3254 23.6746C16.2945 25.6438 18.9652 26.75 21.75 26.75ZM41.985 3.41C41.985 2.06 40.89 0.964998 39.54 0.964998C37.59 0.964998 36.03 2.54 36.045 4.475V12.8C36.045 14.6795 37.134 16.3625 38.82 17.1245V30.05C38.82 30.83 39.45 31.46 40.23 31.46H40.575C41.355 31.46 41.985 30.83 41.985 30.05V3.41ZM7.23 0.964998C6.95948 0.964998 6.70004 1.07246 6.50875 1.26375C6.31746 1.45504 6.21 1.71448 6.21 1.985V6.02C6.21 6.32 5.97 6.545 5.685 6.545C5.385 6.545 5.16 6.305 5.16 6.02V2.03C5.16 1.475 4.725 0.979998 4.17 0.964998C3.585 0.949998 3.105 1.415 3.105 1.985V6.02C3.105 6.32 2.865 6.545 2.58 6.545C2.28 6.545 2.055 6.305 2.055 6.02V2.03C2.055 1.475 1.62 0.979998 1.065 0.964998C0.48 0.949998 0 1.415 0 1.985V8.855C0 10.208 0.6555 11.4155 1.6635 12.1685C2.565 12.677 2.565 15.005 2.565 15.005V30.035C2.565 30.815 3.195 31.445 3.975 31.445H4.32C5.1 31.445 5.73 30.815 5.73 30.035V15.005C5.73 15.005 5.73 12.7685 6.6315 12.1685C7.14751 11.7837 7.5666 11.2839 7.85539 10.7086C8.14418 10.1334 8.29471 9.49866 8.295 8.855V1.985C8.27981 1.71166 8.16139 1.45429 7.96368 1.26494C7.76597 1.07559 7.50374 0.968379 7.23 0.964998Z" fill="#FAAA55"/>
</svg>
