<svg width="24" height="20" viewBox="0 0 24 20" fill="none" xmlns="http://www.w3.org/2000/svg">
<path d="M20.9053 5.28211C20.9205 5.48628 20.9205 5.68928 20.9205 5.89228C20.9205 12.1048 16.192 19.2634 7.5505 19.2634C4.88816 19.2634 2.41483 18.4923 0.333496 17.1529C0.711496 17.1961 1.0755 17.2113 1.46866 17.2113C3.58382 17.2164 5.63908 16.5091 7.30316 15.2034C6.32249 15.1857 5.37183 14.8621 4.58394 14.278C3.79605 13.6938 3.21024 12.8782 2.90833 11.9449C3.19883 11.9881 3.4905 12.0173 3.79616 12.0173C4.21733 12.0173 4.64083 11.9589 5.034 11.8574C3.96972 11.6426 3.01272 11.0657 2.32572 10.2249C1.63872 9.38414 1.26414 8.33137 1.26566 7.24561V7.18728C1.89216 7.53611 2.619 7.75428 3.389 7.78345C2.74393 7.3548 2.215 6.77314 1.84939 6.09037C1.48378 5.4076 1.29286 4.64495 1.29366 3.87045C1.29366 2.99778 1.52583 2.19745 1.933 1.49978C3.11382 2.9523 4.58658 4.1406 6.25589 4.98772C7.92519 5.83483 9.75382 6.32186 11.6233 6.41728C11.551 6.06728 11.5067 5.70445 11.5067 5.34045C11.5064 4.72324 11.6277 4.11201 11.8638 3.54173C12.0998 2.97144 12.4459 2.45327 12.8824 2.01683C13.3188 1.5804 13.837 1.23426 14.4073 0.998205C14.9776 0.76215 15.5888 0.640807 16.206 0.641114C17.5593 0.641114 18.7808 1.20811 19.6395 2.12511C20.6916 1.92167 21.7005 1.53761 22.6215 0.989947C22.2708 2.0759 21.5362 2.99674 20.5553 3.57995C21.4884 3.47352 22.4003 3.22814 23.2608 2.85195C22.6181 3.7889 21.8218 4.61052 20.9053 5.28211Z" fill="#FAAA55"/>
</svg>
